<mxfile host="app.diagrams.net" agent="Mozilla/5.0 (Windows NT 10.0; Win64; x64) AppleWebKit/537.36 (KHTML, like Gecko) Chrome/134.0.0.0 Safari/537.36" version="26.1.3">
  <diagram name="Page-1" id="xTtRTf_TWGCdzLU3lCcw">
    <mxGraphModel dx="1434" dy="746" grid="1" gridSize="10" guides="1" tooltips="1" connect="1" arrows="1" fold="1" page="1" pageScale="1" pageWidth="827" pageHeight="1169" math="0" shadow="0">
      <root>
        <mxCell id="0" />
        <mxCell id="1" parent="0" />
        <mxCell id="nHf0fgzIDgT1C-EJwVzh-5" value="" style="edgeStyle=orthogonalEdgeStyle;rounded=0;orthogonalLoop=1;jettySize=auto;html=1;fontFamily=latex;fontSource=http%3A%2F%2Fsourceforge.net%2Fprojects%2Fcm-unicode%2Ffiles%2FOldFiles%2Fcm-unicode-fix-0.6.3.tar.bz2%2Fdownload;fontSize=12;" edge="1" parent="1" source="nHf0fgzIDgT1C-EJwVzh-1" target="nHf0fgzIDgT1C-EJwVzh-2">
          <mxGeometry relative="1" as="geometry" />
        </mxCell>
        <mxCell id="nHf0fgzIDgT1C-EJwVzh-1" value="Input" style="rounded=0;whiteSpace=wrap;html=1;fontFamily=latex;fontSource=http%3A%2F%2Fsourceforge.net%2Fprojects%2Fcm-unicode%2Ffiles%2FOldFiles%2Fcm-unicode-fix-0.6.3.tar.bz2%2Fdownload;fontSize=12;" vertex="1" parent="1">
          <mxGeometry x="254" y="40" width="80" height="40" as="geometry" />
        </mxCell>
        <mxCell id="nHf0fgzIDgT1C-EJwVzh-6" value="" style="edgeStyle=orthogonalEdgeStyle;rounded=0;orthogonalLoop=1;jettySize=auto;html=1;entryX=0;entryY=0.5;entryDx=0;entryDy=0;fontFamily=latex;fontSource=http%3A%2F%2Fsourceforge.net%2Fprojects%2Fcm-unicode%2Ffiles%2FOldFiles%2Fcm-unicode-fix-0.6.3.tar.bz2%2Fdownload;fontSize=12;" edge="1" parent="1" source="nHf0fgzIDgT1C-EJwVzh-2" target="nHf0fgzIDgT1C-EJwVzh-3">
          <mxGeometry relative="1" as="geometry" />
        </mxCell>
        <mxCell id="nHf0fgzIDgT1C-EJwVzh-2" value="Generate chirp" style="rounded=0;whiteSpace=wrap;html=1;fontFamily=latex;fontSource=http%3A%2F%2Fsourceforge.net%2Fprojects%2Fcm-unicode%2Ffiles%2FOldFiles%2Fcm-unicode-fix-0.6.3.tar.bz2%2Fdownload;fontSize=12;" vertex="1" parent="1">
          <mxGeometry x="374" y="40" width="80" height="40" as="geometry" />
        </mxCell>
        <mxCell id="nHf0fgzIDgT1C-EJwVzh-3" value="Display figure" style="rounded=0;whiteSpace=wrap;html=1;fontFamily=latex;fontSource=http%3A%2F%2Fsourceforge.net%2Fprojects%2Fcm-unicode%2Ffiles%2FOldFiles%2Fcm-unicode-fix-0.6.3.tar.bz2%2Fdownload;fontSize=12;" vertex="1" parent="1">
          <mxGeometry x="494" y="10" width="80" height="40" as="geometry" />
        </mxCell>
        <mxCell id="nHf0fgzIDgT1C-EJwVzh-4" value="Save IQ data to file" style="rounded=0;whiteSpace=wrap;html=1;fontFamily=latex;fontSource=http%3A%2F%2Fsourceforge.net%2Fprojects%2Fcm-unicode%2Ffiles%2FOldFiles%2Fcm-unicode-fix-0.6.3.tar.bz2%2Fdownload;fontSize=12;" vertex="1" parent="1">
          <mxGeometry x="494" y="70" width="80" height="40" as="geometry" />
        </mxCell>
        <mxCell id="nHf0fgzIDgT1C-EJwVzh-7" value="" style="edgeStyle=orthogonalEdgeStyle;rounded=0;orthogonalLoop=1;jettySize=auto;html=1;entryX=0;entryY=0.5;entryDx=0;entryDy=0;exitX=1;exitY=0.5;exitDx=0;exitDy=0;fontFamily=latex;fontSource=http%3A%2F%2Fsourceforge.net%2Fprojects%2Fcm-unicode%2Ffiles%2FOldFiles%2Fcm-unicode-fix-0.6.3.tar.bz2%2Fdownload;fontSize=12;" edge="1" parent="1" source="nHf0fgzIDgT1C-EJwVzh-2" target="nHf0fgzIDgT1C-EJwVzh-4">
          <mxGeometry relative="1" as="geometry">
            <mxPoint x="464" y="70" as="sourcePoint" />
            <mxPoint x="504" y="40" as="targetPoint" />
          </mxGeometry>
        </mxCell>
      </root>
    </mxGraphModel>
  </diagram>
</mxfile>
